<?xml version="1.0" encoding="utf-8"?>
<!-- Generator: Adobe Illustrator 28.2.0, SVG Export Plug-In . SVG Version: 6.00 Build 0)  -->
<svg version="1.1" id="Logo" xmlns="http://www.w3.org/2000/svg" xmlns:xlink="http://www.w3.org/1999/xlink" x="0px" y="0px"
	 viewBox="0 0 376.3 143.2" style="enable-background:new 0 0 376.3 143.2;" xml:space="preserve">
<style type="text/css">
	.st0{clip-path:url(#SVGID_00000062150805765623538660000017432003769138869138_);}
	.st1{fill:url(#SVGID_00000124863167887517132380000003064127094996424344_);}
</style>
<g>
	<defs>
		<path id="SVGID_1_" d="M211.2,94.7c-1.4,0-2.6-0.1-3.7-0.2c-1.5-0.2-2.8-1.1-3.4-2.5c-0.6-1.4-0.4-2.9,0.4-4.1
			c0.1-0.1,0.3-0.5,0.4-1.4c0.1-0.6,0.2-2,0.2-4.9c0-1.4-0.1-2.1-0.1-2.3c0,0,0,0-0.1,0c0,0-0.1,0.1-0.1,0.1
			c-0.1,0.1-0.2,0.2-0.2,0.3c-0.4,0.6-1,1.8-1.7,3.7l-1.8,4.4c-0.6,1.6-2.2,2.6-3.8,2.6c0,0,0,0,0,0c-1.7,0-3.2-1-3.8-2.5
			c-0.1-0.3-0.3-0.6-0.4-0.9l-3-7.3c-0.2-0.5-0.4-0.8-0.5-0.9c-0.8,0.9-2,1.4-3.1,1.4c-0.5,0-1-0.1-1.4-0.3c-1.7-0.6-2.8-2.2-2.7-4
			c0-1.6,0.1-3,0.1-4.3c0-2.6-0.2-4.3-0.5-5.1c0-0.1-0.2-0.3-0.3-0.4c-1.2-1.1-1.7-2.7-1.3-4.3c0.4-1.6,1.7-2.7,3.3-3
			c0.2,0,0.4-0.1,0.6-0.1c1.2-0.2,2.1-0.2,3-0.2c1.5,0,2.6,0.1,3.5,0.3c1.2,0.3,2.2,1,2.8,2.1c0.1,0.2,0.3,0.5,0.5,1l4.7,9.4
			c0.7,1.4,0.9,1.7,1,1.7c0,0,0,0.1,0.2,0.1c0,0,0.1,0,0.1,0c0,0,0,0,0.1,0c0,0,0.1-0.1,0.1-0.1c0.1-0.1,0.3-0.4,0.6-1.1l3.2-6.8
			c0.4-0.9,0.6-1.4,0.8-1.7c0.7-1.6,1.5-2.7,2.2-3.4c0.3-0.2,0.6-0.4,0.9-0.6c1.1-0.6,2.7-0.8,4.9-0.8c1.1,0,2.1,0.1,3,0.2
			c1.5,0.3,2.7,1.3,3.3,2.7c0.5,1.4,0.2,3-0.8,4.2c-0.4,0.4-0.6,1-0.8,1.7c-0.3,2.2-0.5,4.9-0.5,8.1c0,4.1,0.2,7.8,0.5,10.9
			c0.1,0.9,0.3,1.2,0.3,1.2c0,0,0,0.1,0.1,0.1c1.1,1.2,1.4,2.8,0.8,4.3c-0.5,1.5-1.9,2.5-3.4,2.7l-0.3,0
			C214.2,94.7,212.9,94.7,211.2,94.7z M184.7,94.7c-1.6,0-3-0.9-3.7-2.3c-0.7-1.4-0.6-3,0.3-4.3c0-0.1,0.1-0.1,0.1-0.2
			c0-0.1,0.1-0.2,0.1-0.3c0.5-1.9,2.1-3.2,4.1-3.2c0,0,0,0,0,0c1.9,0,3.6,1.4,4,3.3l0,0.1c0.1,0.2,0.1,0.3,0.1,0.3
			c0.8,1.2,1,2.8,0.3,4.2c-0.7,1.3-2,2.2-3.5,2.3c-0.5,0-1.1,0.1-1.7,0.1L184.7,94.7z M234,94.1c1.5-0.5,2.5-1.9,2.7-3.4
			c0-0.1,0-0.2,0-0.3c0.2,0.5,0.5,0.9,0.9,1.3c0,0,0,0,0.1,0.1c0.6,1.7,2.2,2.8,3.9,2.8c0.1,0,0.2,0,0.3,0c1.4-0.1,2.9-0.3,4.4-0.7
			c0.5-0.1,1-0.3,1.4-0.4c1.3-0.4,2.4-1.5,2.7-2.9c0.4-1.4,0-2.8-1-3.9c-0.1-0.1-0.1-0.2-0.1-0.3V75.6c0-1.1,0-2.1,0.1-2.9l0-0.3
			c0-1.2-0.4-2.3-1.2-3.1c-0.8-0.8-1.8-1.2-2.9-1.2c-0.1,0-0.1,0-0.2,0c-1.7,0.1-3.5,0.3-5.2,0.6c-1.4,0.3-2.5,1.2-3,2.5
			c-0.5,1.3-0.4,2.8,0.4,3.9c0,0.1,0.1,0.2,0.1,0.4c0,0,0,0.1,0,0.1c0.2,0.9,0.2,2.7,0.2,5.4c0,3.4-0.3,4.6-0.4,4.9
			c0,0.1-0.1,0.1-0.1,0.2c-0.5,0.7-0.7,1.4-0.8,2.2c-0.3-0.7-0.8-1.3-1.4-1.7c-0.6-0.4-0.9-1.6-0.9-3.2V72.4c0-1.2-0.5-2.3-1.3-3
			c-0.8-0.7-1.8-1.1-2.9-1.1c-0.1,0-0.2,0-0.2,0c-1.7,0.1-3.4,0.3-5.1,0.6c-1.4,0.3-2.6,1.2-3.1,2.6c-0.5,1.3-0.3,2.8,0.5,4
			c0.1,0.2,0.2,0.3,0.3,0.5c0.2,0.6,0.3,1.5,0.3,2.8v1.1c0,1,0,2.1,0,3.5c0,3.8,0.5,6.5,1.7,8.2c1.4,2.1,3.7,3.1,6.9,3.1
			C232.1,94.7,233.1,94.5,234,94.1z M264.6,94.8c2.2-0.1,4.2-0.9,5.7-2.2c2-1.7,3.1-3.8,3.1-6.4c0-2-0.7-3.7-2-5.1
			c-1.4-1.6-3.5-3-6.1-4.3c-0.8-0.4-1.7-1-1.7-1.5c0-0.2,0.1-0.4,0.2-0.6c1.1-1.3,1.2-3.2,0.3-4.7c-0.8-1.3-2.1-2.1-3.6-2.1
			c-0.2,0-0.4,0-0.5,0c-2.3,0.3-4.3,1.4-5.7,3.3c-1.2,1.6-1.8,3.4-1.8,5.6c0,2,0.6,3.8,1.8,5.3c1.2,1.5,3,2.9,5.6,4.2
			c0.5,0.3,1.3,0.8,1.3,1.3c0,0.2,0,0.3-0.1,0.5c-1,1.3-1.1,3-0.3,4.5c0.7,1.4,2.2,2.2,3.7,2.2C264.4,94.8,264.5,94.8,264.6,94.8z
			 M282.3,94.7c-1.5,0-2.9-0.1-4.1-0.2c-1.5-0.2-2.8-1.2-3.3-2.5c-0.6-1.4-0.4-3,0.5-4.2c0.2-0.3,0.4-0.7,0.5-1.1
			c0.1-0.5,0.3-1.6,0.3-3.6c0-0.5,0-1.5-0.1-3c-0.1-1.9-0.1-2.4-0.1-2.5c0-0.2-0.1-0.4-0.3-0.5c-1-1-1.4-2.5-1.1-3.9
			c0.3-1.4,1.3-2.5,2.7-3c1.2-0.4,2.6-0.8,3.9-1.2c0.7-0.2,1.3-0.3,1.8-0.4c0.3-0.1,0.5-0.1,0.8-0.1c1,0,1.9,0.3,2.7,0.9
			c1,0.8,1.5,2,1.5,3.2v12.2c0,1.3,0.1,1.9,0.2,2.2c0.1,0.2,0.2,0.4,0.3,0.6c1,1.2,1.2,2.7,0.7,4.1s-1.8,2.4-3.2,2.7
			C284.9,94.6,283.7,94.7,282.3,94.7z M278.5,68.3c-2,0-3.7-1.4-4.1-3.3c-0.4-1.9,0.5-3.9,2.3-4.7l0.2-0.1c2-0.9,3.9-1.3,5.6-1.3
			c0.2,0,0.5,0,0.7,0c1.9,0.1,3.4,1.5,3.8,3.3c0.4,1.8-0.5,3.7-2.1,4.6C283.1,67.8,281,68.3,278.5,68.3
			C278.5,68.3,278.5,68.3,278.5,68.3z M310.1,93.1c1.7-1,2.4-3.1,1.8-4.9c-0.6-1.7-2.2-2.9-4-2.9c-0.1,0-0.3,0-0.4,0
			c-0.3,0-0.6,0-0.9,0c-1.4,0-2.5-0.5-3.4-1.6c-1.2-1.4-1.8-2.9-1.8-4.7c0-1,0.2-1.8,0.7-2.4c0.1-0.2,0.3-0.4,0.5-0.5
			c0.3-0.3,0.6-0.6,0.8-0.9c0.2,0.3,0.5,0.5,0.9,0.7c0.3,0.2,0.6,0.7,0.8,1.3c0.2,0.7,0.4,1.3,0.6,1.8c0.6,1.6,2.2,2.7,3.9,2.7h0
			c1.4,0,2.7-0.5,3.7-1.5c1.1-1,1.6-2.4,1.6-4.1c0-2.3-1.1-4.3-3.3-5.9c-1.2-0.9-2.5-1.5-4-1.9c-0.4-0.1-0.7-0.1-1.1-0.1
			c-1.4,0-2.7,0.7-3.4,1.8c-0.8-0.9-1.9-1.4-3.1-1.4c-0.5,0-1.1,0.1-1.6,0.3c-1.5,0.6-2.9,1.5-4.1,2.7c-2.8,2.6-4.2,5.9-4.2,9.8
			c0,4.1,1.5,7.5,4.5,10.2c2.3,2.1,5.2,3.2,8.5,3.2C305.8,94.9,308.1,94.2,310.1,93.1z M124.4,105c-2.2,0-4.7-0.4-7.3-1.3
			c-2.7-0.9-6.4-2.5-11.5-4.9c-0.9-0.4-1.9-0.8-3-1.1c-1.1-0.3-2-0.4-2.8-0.4c-0.2,0-0.5,0-0.9,0.1c-0.2,0-0.4,0-0.5,0
			c-0.3,0-0.6-0.1-0.8-0.4c-0.2-0.3-0.3-0.7-0.3-1.1c0-0.8,0.3-1.5,0.8-2c0.5-0.5,1-0.8,1.6-1c0.8-0.3,1.3-0.9,1.6-1.7
			c0.2-0.8,0.1-1.6-0.4-2.2c-0.4-0.5-0.7-1-1-1.4c-0.5-0.7-1.2-1.1-2-1.1c0,0,0,0-0.1,0c-0.8,0-1.5,0.4-2,1c-2,2.6-4.7,4.6-8,5.7
			c-2.1,0.7-4.3,1-6.7,1l-3.2-0.1L75,94c-2.1-0.1-4-0.1-5.6-0.1h-1.9c-1.1,0-2.3,0.1-3.7,0.2c-0.9,0.1-1.5,0.1-1.8,0.1
			c-1.2,0-2.1-0.3-2.9-0.8c-0.7-0.5-1.1-1.3-1.1-2.1c0-0.6,0.2-1.1,0.5-1.4c0.3-0.3,0.9-0.6,1.6-0.8c0.9-0.2,1.6-0.9,1.8-1.9
			c0.1-0.4,0.2-0.8,0.2-1.3c0.1-1.3,0.3-3.9,0.4-7.7c0.1-3.8,0.2-7.6,0.2-11.3c0-0.8,0-1.5-0.1-2c-0.1-0.9-0.7-1.6-1.5-2
			c-0.1,0-0.2-0.1-0.3-0.1C59,62,59,60.8,59,60.4c0-0.9,0.4-1.5,1.2-2c0.8-0.5,2-0.7,3.5-0.7c0.5,0,1.1,0,1.7,0
			c1.5,0.1,2.5,0.1,3.2,0.1c2.5,0,5.3-0.1,8.5-0.2c0.7,0,1.5-0.1,2.5-0.1c4,0,7.1,0.4,9.5,1.4c3.3,1.3,5.9,3.5,7.7,6.6
			c0.4,0.7,1.1,1.2,1.9,1.3c0.1,0,0.2,0,0.2,0c0.7,0,1.4-0.3,1.9-0.9c1.8-2,4.1-3.7,7-5c2.9-1.3,5.9-1.9,8.8-1.9
			c2.5,0,5.2,0.6,7.9,1.7c1.8,0.7,3.4,1.7,4.8,2.9c0.5,0.4,1,0.6,1.6,0.6c0.2,0,0.4,0,0.5-0.1c0.8-0.2,1.4-0.7,1.8-1.4
			c0.4-0.9,1-1.8,1.6-2.6c1.3-1.8,2.6-2.7,3.9-2.7c0.4,0,0.7,0.1,1.2,0.2c1,0.2,1.7,0.3,2.3,0.4c0.6,0.1,1.3,0.1,2.1,0.1
			c0,0,13.8,0,13.9,0c1.5-0.1,2.8-0.3,4-0.6c0.5-0.1,1-0.2,1.4-0.2c1.4,0,2.8,1.1,4.1,3.1c1.3,2.1,2,4.3,2,6.5
			c0,1.5-0.5,2.6-1.4,3.3c-0.7,0.5-1.5,0.8-2.5,0.8c-0.9,0-1.7-0.3-2.4-0.8c-0.6-0.4-1.2-1.1-1.7-2.1c-0.5-0.8-1.3-1.2-2.1-1.2
			c-0.2,0-0.5,0-0.7,0.1c-1.1,0.3-1.8,1.3-1.8,2.4v13.8c0,1.5,0.2,2.6,0.5,3.3c0.3,0.7,0.9,1.2,1.8,1.6c0.9,0.4,1.6,0.8,1.9,1.1
			c0.3,0.4,0.5,0.9,0.5,1.5c0,1.3-0.8,2.2-2.6,2.8c-1.7,0.6-4.3,0.9-7.9,0.9c-4.3,0-7.6-0.4-9.7-1.1c-1.8-0.6-2.6-1.5-2.6-2.9
			c0-0.7,0.3-1.3,0.9-1.7c0.2-0.1,0.7-0.3,1.8-0.6c0.8-0.3,1.5-0.9,1.7-1.8c0.2-0.6,0.3-1.4,0.4-2.5c0.1-1.4,0.3-3.6,0.4-6.6
			c0.1-3,0.2-5.7,0.2-7.9c0-1.1-0.7-2-1.7-2.4c-0.3-0.1-0.5-0.1-0.8-0.1c-0.8,0-1.5,0.4-2,1c-0.7,1-1.4,1.7-1.9,2.1
			c-0.4,0.3-0.8,0.5-1.2,0.7c-1.1,0.5-1.7,1.7-1.4,2.9c0.4,1.5,0.6,3,0.6,4.5c0,3.9-1.2,7.4-3.4,10.6c-1,1.5-2.4,2.8-3.9,3.9
			c-0.3,0.2-0.5,0.4-0.8,0.5c-0.9,0.6-1.3,1.7-1.1,2.7c0.3,1,1.2,1.8,2.2,1.9c0.6,0.1,1.2,0.1,1.9,0.1c1.2,0,2.4-0.2,3.5-0.7
			c0.2-0.1,0.4-0.2,0.6-0.2c0.1,0,0.4,0,0.8,0.7c0.3,0.4,0.4,0.9,0.4,1.3c0,0.9-0.6,1.8-1.7,2.8c-1.1,1-2.6,1.8-4.4,2.4
			C128.2,104.7,126.3,105,124.4,105z M77.4,63.3c-0.7,0-1.3,0.3-1.8,0.7c-0.5,0.5-0.8,1.1-0.8,1.8v20c0,0.3,0,0.6,0.1,0.9
			c0.2,1.1,1,2,2.1,2.1c0.3,0,0.6,0.1,0.9,0.1c5.2,0,7.7-3.8,7.7-11.6c0-4.3-0.6-7.6-1.8-10C82.6,64.7,80.5,63.3,77.4,63.3
			C77.5,63.3,77.5,63.3,77.4,63.3z M113.9,66.5c-1.3,0-2.4,0.5-3.2,1.4c-0.8,0.9-1.2,2.2-1.2,3.9c0,1.9,0.3,4.1,0.9,6.3
			c0.6,2.3,1.5,4.5,2.5,6.5c1.4,2.7,3.2,4.1,5.4,4.1c1.4,0,2.5-0.5,3.4-1.4c0.9-1,1.4-2.2,1.4-3.7c0-1.9-0.4-4.2-1-6.7
			c-0.7-2.5-1.6-4.7-2.7-6.6c-1.4-2.4-3.2-3.7-5.4-3.8C114,66.5,113.9,66.5,113.9,66.5C113.9,66.5,113.9,66.5,113.9,66.5z M121,53
			c-0.3,0-0.8,0-1.3-0.1c-1.5-0.3-3.4-0.4-5.4-0.4c-0.9,0-1.7,0-2.4,0.1c-0.6,0.1-1,0.1-1.3,0.1c-0.7,0-1.1-0.4-1.1-1.3
			c0-0.6,0.2-1.5,0.6-2.8c0.4-1.3,0.8-2.4,1.2-3.1c0.5-0.8,0.9-1.4,1.3-1.7c0.4-0.3,0.9-0.5,1.5-0.5c0.4,0,0.9,0,1.4,0.1
			c2.1,0.2,3.7,0.3,4.9,0.3c1.1,0,2,0,2.5-0.1c0.4-0.1,0.9-0.1,1.2-0.1c0.5,0,0.8,0.4,0.8,1.2c0,0.7-0.2,1.7-0.5,2.9
			c-0.3,1.2-0.8,2.3-1.3,3.4c-0.4,0.8-0.8,1.4-1.1,1.7C121.7,52.9,121.3,53,121,53z M320.3,33.5c14.4,0,26.1,11.7,26.1,26.1v29.2
			c0,14.4-11.7,26.1-26.1,26.1H52.7c-14.4,0-26.1-11.7-26.1-26.1V59.6c0-14.4,11.7-26.1,26.1-26.1H320.3 M320.3,21.5H52.7
			c-21,0-38.1,17.1-38.1,38.1v29.2c0,21,17.1,38.1,38.1,38.1h267.5c21,0,38.1-17.1,38.1-38.1V59.6C358.3,38.6,341.3,21.5,320.3,21.5
			L320.3,21.5z M323.3,45.5c1.4,2.7,3.5,4.4,6.7,4.5c0.6,0,1.1,0.1,1.7,0.1c0.7,0,1,0.4,1.2,1c0.2,0.6-0.3,0.8-0.7,1.1
			c-1.6,1-3.3,1.8-4.4,3.5c-1,1.5-1.2,3.2-1.2,4.9c0,0.8,0,1.7-1.1,1.9c-0.9,0.1-1.1-0.7-1.4-1.3c-1.5-3.3-4.2-5-7.8-5.2
			c-0.3,0-0.7,0-1,0c-0.6-0.1-1.2-0.3-1.2-1c-0.1-0.6,0.3-1.1,0.9-1.3c0.3-0.2,0.7-0.3,1-0.5c3.1-1.3,4.3-3.8,4.6-6.9
			c0-0.1,0-0.2,0-0.3c0.2-0.9-0.4-2.2,0.9-2.4C322.5,43.3,322.8,44.6,323.3,45.5z"/>
	</defs>
	<clipPath id="SVGID_00000165230207937450734510000000642053853189169581_">
		<use xlink:href="#SVGID_1_"  style="overflow:visible;"/>
	</clipPath>
	<g style="clip-path:url(#SVGID_00000165230207937450734510000000642053853189169581_);">
		
			<linearGradient id="SVGID_00000147902111445008834270000002064604669099584176_" gradientUnits="userSpaceOnUse" x1="11.6399" y1="74.164" x2="361.363" y2="74.164">
			<stop  offset="4.475343e-07" style="stop-color:#A6EDA7"/>
			<stop  offset="0.25" style="stop-color:#EFEC67"/>
			<stop  offset="0.5" style="stop-color:#FFCB92"/>
			<stop  offset="0.75" style="stop-color:#FB76E1"/>
			<stop  offset="1" style="stop-color:#FF5284"/>
		</linearGradient>
		
			<rect x="11.6" y="18.9" style="fill:url(#SVGID_00000147902111445008834270000002064604669099584176_);" width="349.7" height="110.5"/>
		
			<image style="overflow:visible;" width="8772" height="2980" xlink:href="D1464AD9.jpg"  transform="matrix(5.166391e-02 0 0 -4.804516e-02 -38.44 143.1746)">
		</image>
	</g>
</g>
</svg>
